<svg width="45" height="45" viewBox="0 0 45 45" fill="none" xmlns="http://www.w3.org/2000/svg">
<path d="M22.5 2.43164C33.583 2.43164 42.5684 11.4171 42.5684 22.5C42.5683 33.5828 33.5829 42.5674 22.5 42.5674C11.4171 42.5674 2.43173 33.5828 2.43164 22.5C2.43164 11.4171 11.417 2.43164 22.5 2.43164ZM32.1641 12.0732C31.9806 12.0401 31.7915 12.0578 31.6172 12.124H31.6162L8.50879 20.9297L8.50391 20.9316C8.35992 20.9881 8.2308 21.0755 8.12598 21.1875L8.0293 21.3076C7.91226 21.4775 7.84873 21.6785 7.84668 21.8848V21.8906C7.84675 22.3154 8.11729 22.7018 8.50977 22.8506L8.5166 22.8525L14.1172 24.8965L14.3467 24.9795L14.5635 24.8682L24.1826 19.9014L18.0234 25.4268L17.5361 25.8643L18.0459 26.2754L26.748 33.2822L26.7607 33.292L26.7734 33.3008C27.0494 33.4984 27.4107 33.5464 27.7266 33.4316L27.7305 33.4297C27.8887 33.3707 28.0299 33.2732 28.1416 33.1465C28.2531 33.02 28.3314 32.8682 28.3701 32.7041L28.3711 32.7051L32.9795 13.3223C33.0121 13.1861 33.0159 13.0452 32.9922 12.9082L32.96 12.7734L32.9082 12.6436C32.8685 12.5599 32.8175 12.4822 32.7568 12.4121L32.6592 12.3125C32.5191 12.1893 32.3476 12.1065 32.1641 12.0732Z" stroke="white" stroke-width="1.11409"/>
</svg>
