<svg width="42" height="42" viewBox="0 0 42 42" fill="none" xmlns="http://www.w3.org/2000/svg">
<path d="M32.3034 15.1249C32.4762 14.5722 32.3034 14.1704 31.5391 14.1704H28.9976C28.3565 14.1704 28.0605 14.5222 27.8877 14.8985C27.8877 14.8985 26.5803 18.1126 24.7546 20.1964C24.1626 20.7991 23.8913 20.9999 23.5705 20.9999C23.3978 20.9999 23.1755 20.7991 23.1755 20.2469V15.0989C23.1755 14.4463 22.9785 14.145 22.4354 14.145H18.4385C18.0435 14.145 17.797 14.4463 17.797 14.7476C17.797 15.3752 18.7098 15.5261 18.8083 17.2836V21.1023C18.8083 21.9308 18.6627 22.0822 18.3395 22.0822C17.4762 22.0822 15.3792 18.8431 14.1213 15.1523C13.8767 14.4213 13.6283 14.145 12.9867 14.145H10.421C9.68088 14.145 9.55762 14.4963 9.55762 14.873C9.55762 15.5511 10.421 18.9656 13.5788 23.485C15.6757 26.5717 18.6608 28.2307 21.3498 28.2307C22.9785 28.2307 23.1755 27.8539 23.1755 27.2263V24.8912C23.1755 24.1381 23.3235 24.0127 23.8418 24.0127C24.2116 24.0127 24.8779 24.2131 26.3828 25.6947C28.1095 27.4522 28.4055 28.2557 29.3679 28.2557H31.9089C32.6489 28.2557 32.9945 27.8789 32.797 27.1508C32.5752 26.4228 31.7361 25.3684 30.6505 24.1131C30.0584 23.4105 29.1703 22.632 28.8991 22.2552C28.5293 21.753 28.6278 21.5521 28.8991 21.1004C28.8743 21.1004 31.9831 16.631 32.3034 15.1229" stroke="white"/>
<ellipse cx="20.6743" cy="20.6745" rx="20.1177" ry="20.1175" stroke="white" stroke-width="1.11409"/>
</svg>
