<svg width="249" height="138" viewBox="0 0 249 138" fill="none" xmlns="http://www.w3.org/2000/svg">
<path d="M104.076 67.3243L104.18 67.3133C104.757 67.2578 106.897 67.3544 107.656 67.3698L114.597 67.4924C119.898 67.5799 125.199 67.5526 130.499 67.4102C131.803 67.3738 136.329 66.9441 137.096 67.563L137.045 67.7449C136.729 67.9007 136.462 67.8894 136.121 67.9051C134.146 67.9842 132.636 68.735 132.6 70.9022C132.473 78.5531 132.548 86.2184 132.562 93.8711C132.606 94.4403 132.704 95.8363 133.091 96.2356C134.307 97.4898 136.292 96.7622 137.778 97.4873C135.704 97.9201 133.097 97.6291 130.916 97.657C129.419 97.6758 126.957 97.8116 125.587 97.6426L125.473 97.4638C125.994 96.7208 128.357 97.3819 129.182 96.4081C129.553 95.969 129.808 95.5092 129.855 94.9149C130.013 92.8574 129.949 90.6218 129.949 88.5556L129.943 75.609C129.955 73.8473 130.007 72.0567 129.888 70.3104C129.78 69.038 129.501 68.5525 128.165 68.4324C124.77 68.1272 121.267 68.3367 117.856 68.2805C116.26 68.2542 112.763 68.1219 111.53 69.016C110.686 70.5227 111.419 83.7711 111.193 86.3391C111.014 88.3734 111.273 92.1445 111.217 94.302C111.124 97.8819 114.824 96.6198 115.612 97.4343L115.439 97.5999C115.031 97.7291 105.238 97.7467 104.218 97.6332L104.098 97.4569L104.181 97.2954C104.512 97.132 104.833 97.1382 105.187 97.1351C109.012 97.1028 108.667 94.6088 108.593 91.6897C108.562 90.4747 108.585 88.9319 108.587 87.6774L108.598 77.3534C108.6 75.2862 108.629 73.2156 108.548 71.1481C108.425 68.0353 106.811 68.2639 104.28 67.7907C104.149 67.7662 104.109 67.4457 104.076 67.3243Z" fill="white"/>
<path d="M113.405 21.9439C112.632 20.1809 109.479 15.0762 107.797 13.9756C107.136 13.5426 105.082 12.8286 104.634 12.3446L104.679 12.1325C105.182 12.0363 105.624 12.0919 106.123 12.0935C111.593 12.0874 113.844 16.6441 116.241 20.6501C119.414 25.934 122.31 32.1083 128.905 33.6187C130.05 33.8809 133.424 34.1698 134.135 34.5709L134.07 34.7058C133.208 34.9018 130.905 34.8551 129.91 34.8049C124.299 34.5217 120.015 32.1964 116.672 27.6968C116.04 26.8469 114.714 24.281 113.852 24.0506C113.177 24.2216 112.899 24.4994 112.34 24.895C107.768 28.1348 107.159 33.9998 110.664 38.3192C113.772 42.1484 117.934 42.3692 122.58 42.8864C124.109 43.0711 130.817 43.1502 131.544 43.6551C130.741 43.9204 124.773 43.6589 123.478 43.6353C121.733 43.7316 117.865 43.4033 116.118 43.1618C112.592 42.6747 108.526 40.6875 106.391 37.7569C104.846 35.6339 104.536 33.3296 104.9 30.7969C105.291 28.0725 107.347 25.447 109.696 24.0757C110.945 23.3472 112.207 22.8128 113.405 21.9439Z" fill="white"/>
<path d="M122.58 42.8864C124.109 43.0711 130.817 43.1501 131.544 43.6551C130.741 43.9204 124.774 43.6588 123.478 43.6353C122.997 43.4873 120.824 43.2928 120.195 43.2411L120.349 43.1943C121.303 42.9121 121.675 43.1514 122.47 42.9196L122.58 42.8864Z" fill="white"/>
<path d="M132.667 12.369C139.891 11.6864 150.508 15.663 149.263 24.7239C149.028 26.4374 148.454 27.7747 147.332 29.1232C146.712 29.8625 145.998 30.5182 145.209 31.0737C144.383 31.6597 140.804 33.3288 140.982 34.0424C141.458 35.9665 143.929 39.8421 145.412 41.2225C146.168 41.9263 149.277 42.9365 149.677 43.7108C148.988 44.0932 146.673 43.6572 145.897 43.438C137.339 41.0183 136.557 26.7033 127.052 22.7044C125.356 21.9904 123.473 21.6342 121.645 21.4713C120.802 21.3963 119.909 21.3972 119.081 21.236C122.68 19.9498 127.954 21.1561 131.325 22.707C133.958 23.9183 136.049 25.9408 137.533 28.4012C138.279 29.6353 138.966 30.9226 139.856 32.0558C142.25 30.5415 144.811 28.2573 145.461 25.3285C146.803 19.2655 141.759 14.7023 136.308 13.389C135.039 13.0832 133.568 13.1428 132.308 12.8973L132.743 12.7925L132.689 12.7157L131.538 12.6026C131.915 12.5283 132.292 12.4504 132.667 12.369Z" fill="white"/>
<path d="M66.4314 97.6617C64.7126 97.8511 60.6047 97.6768 58.6624 97.6749C54.403 97.6708 49.61 97.8646 45.399 97.6542L45.3494 97.488C45.8637 97.0495 47.8743 96.9739 48.8747 96.591C49.4915 96.0709 49.7512 94.897 49.7518 94.1295C49.7578 86.3611 49.7622 78.5653 49.748 70.7991C49.7458 69.5539 49.2573 68.3163 48.0107 68.1859C47.4404 68.1259 45.5676 67.8976 45.3865 67.4783L45.5339 67.3704C48.3877 67.0533 52.5241 67.3811 55.4744 67.2713C57.5645 67.3052 59.6153 67.2453 61.7079 67.2678C62.8231 67.2798 65.4011 66.6089 65.3609 68.39C65.341 69.2773 65.6473 73.2285 65.2725 73.7447C65.1977 73.7341 65.1229 73.7237 65.048 73.7131C64.6154 72.3227 64.7613 70.7953 63.5943 69.6948C61.9858 68.1953 60.1017 68.2266 58.1147 68.1924C52.0972 68.0889 52.3899 68.7852 52.3827 74.2208L52.3918 81.4655C54.0464 81.495 55.7011 81.5151 57.3558 81.5254C58.9585 81.4699 61.0225 81.5929 62.1823 80.4042C63.223 79.3375 62.5357 78.2705 63.2315 77.8377C63.6801 78.3216 63.5125 80.4255 63.4641 81.1531C63.3997 82.1176 63.7562 85.6933 63.3525 86.357C62.7762 85.901 62.7907 84.2525 62.3747 83.6444C61.4061 82.2289 58.9956 82.3537 57.4781 82.3051C56.0384 82.3908 53.8789 82.3346 52.3817 82.3453L52.3736 90.0955C52.372 91.563 52.0073 95.5848 53.3856 96.2409C55.4087 97.2044 59.7571 96.9265 61.9877 96.66C64.2218 96.3927 65.6221 93.8648 66.0579 91.9266C66.1905 91.4232 66.3043 90.582 66.8303 90.5616C66.9492 90.8627 66.4898 96.7911 66.4314 97.6617Z" fill="white"/>
<path d="M57.3559 81.5254C58.9586 81.4699 61.0226 81.5928 62.1824 80.4041C63.2231 79.3375 62.5358 78.2705 63.2316 77.8376C63.6802 78.3216 63.5126 80.4255 63.4642 81.1531C63.3998 82.1175 63.7563 85.6933 63.3526 86.357C62.7763 85.9009 62.7908 84.2524 62.3748 83.6443C61.4062 82.2289 58.9957 82.3537 57.4782 82.3051C56.9619 81.9676 53.3511 82.4669 52.6915 82.0074L52.6484 81.7562C53.027 81.5125 56.7528 81.8513 57.3559 81.5254Z" fill="white"/>
<path d="M28.889 67.2358C34.4801 67.0451 40.9362 67.6429 41.1698 74.9045C41.26 77.4136 40.3404 79.8543 38.6157 81.6825C36.4803 83.9228 33.4549 84.892 30.4251 84.9026C29.7665 84.9048 28.0867 84.9073 27.6291 84.4717L27.7663 84.3089C28.1523 84.1537 28.8461 84.2161 29.2608 84.2431C40.8953 84.9989 41.1104 67.524 29.5798 67.7605C26.1966 67.8298 25.7825 68.8009 25.7605 72.1097C25.7526 73.3037 25.7636 74.5376 25.7703 75.7303L25.7607 87.7674C25.7599 89.933 25.7278 92.0187 25.8549 94.1809C26.0513 97.5212 29.4557 96.982 31.9713 97.162C32.1369 97.3828 32.0992 97.2768 32.0511 97.6178C31.7974 97.7059 31.5 97.7253 31.2303 97.7222C27.2266 97.6783 23.2452 97.6121 19.242 97.7363C18.9902 97.7442 18.84 97.5858 18.6746 97.4337C19.1479 96.6336 23.0601 97.799 23.1572 94.8587C23.2006 93.5421 23.2229 91.8337 23.2235 90.4687L23.2234 82.7348L23.2188 74.5878C23.2181 73.3743 23.2809 71.7566 23.2006 70.5701C22.9603 67.02 19.5317 68.3191 18.7717 67.6718L18.8346 67.4381C20.4985 67.3158 22.4367 67.4735 24.1364 67.4444C25.7286 67.4168 27.3002 67.3236 28.889 67.2358Z" fill="white"/>
<path d="M155.493 66.5242C156.086 67.1182 157.773 71.0791 158.255 72.0846C161.548 78.9737 164.727 85.9336 168.047 92.8085C168.832 94.2531 169.772 95.9872 171.286 96.764C171.828 97.0422 172.79 96.9328 173.051 97.4644C172.899 97.5795 172.635 97.7247 172.448 97.6999C171.047 97.5161 162.536 97.8351 162.142 97.5299C162.222 97.0473 164.853 97.1103 165.67 96.3544C165.908 96.1343 166.019 95.8329 166.018 95.5126C166.011 94.3177 162.747 87.3556 161.856 86.4968C161.401 86.0587 160.841 85.7874 160.225 85.6525C158.117 85.1896 153.631 85.756 151.217 85.7968C149.232 85.8319 147.672 85.5907 146.114 84.1907C145.396 83.5455 144.454 82.2267 144.41 81.2475L144.51 81.1459C144.986 81.4875 145.343 82.8392 146.588 83.4746C151.381 85.921 156.301 83.1306 161.345 84.823C159.243 80.6008 156.567 74.9726 154.687 70.6601C154.201 71.8369 150.237 81.6054 149.83 81.9908C149.485 82.015 149.617 82.0354 149.279 81.792C148.951 81.176 149.246 80.6042 149.572 80.0422C151.142 77.3453 153.836 68.299 155.493 66.5242Z" fill="white"/>
<path d="M186.872 87.9047C187.437 86.9462 187.954 85.6939 188.431 84.668C190.523 80.1667 192.692 75.655 194.768 71.1527C196.697 66.9748 191.675 68.5326 191.247 67.5095L191.429 67.3559C191.945 67.39 193.316 67.3643 193.69 67.4246C194.751 67.5958 199.831 67.1809 200.178 67.46C199.988 68.2246 198.654 68.0318 197.795 68.7704C196.166 70.1676 195.01 73.2171 194.056 75.2539L187.899 88.3061C186.956 90.3071 184.483 96.1596 183.104 97.3125C182.234 98.0389 181.109 98.3867 179.979 98.2779C176.484 97.9696 176.046 94.4707 179.286 94.0909C180.117 93.9933 181.215 96.0457 181.787 96.7822C183.662 95.8014 184.584 92.9141 185.553 90.861C182.76 85.9187 180.004 80.9561 177.284 75.9733C175.961 73.5957 174.839 71.1562 173.135 69.0241C172.067 67.6867 170.462 68.3448 170.3 67.343C172.453 67.2862 174.65 67.5582 176.819 67.4145C177.327 67.381 180.023 67.2837 180.248 67.492C179.985 68.2096 175.859 67.9041 177.09 70.2818C180.175 76.2346 183.739 81.9763 186.872 87.9047Z" fill="white"/>
<path d="M100.313 89.339C100.198 91.0034 99.9732 93.6254 99.6007 95.2629C99.4561 95.899 98.6896 96.5608 98.062 96.7988C93.3348 98.5916 86.3619 98.8556 81.7007 97.0042C77.8761 95.5129 74.817 92.5453 73.2158 88.7735C69.5173 80.1331 73.4437 72.0137 81.9132 68.4398L81.8626 68.9504C71.9985 74.2499 73.4013 88.0204 81.2133 94.5924C86.4857 99.0278 94.8499 99.221 98.5566 92.6071C99.1445 91.5583 99.5409 90.2495 100.313 89.339Z" fill="white"/>
<path d="M208.754 82.3433C208.746 84.5777 208.387 94.5902 209.07 95.9855C209.762 97.3975 211.892 96.8063 213.069 97.2448L213.127 97.497L212.954 97.6782C211.504 97.789 209.1 97.6444 207.542 97.6494C206.178 97.6541 202.891 97.8194 201.697 97.603L201.638 97.379C202.802 96.4256 206.024 98.3196 206.09 93.8767C206.206 86.244 206.22 78.6098 206.084 70.9774C206.008 66.7609 202.649 68.5477 201.595 67.6551L201.645 67.4312C201.969 67.3935 203.794 67.3443 204.05 67.3938C205.166 67.6106 212.752 67.2132 213.155 67.4933C213.007 68.2689 210.22 67.5958 209.416 68.7299C208.445 70.1018 208.733 72.7467 208.735 74.3757L208.75 81.4629C209.944 81.4821 211.117 81.4893 212.309 81.59C212.862 81.5896 213.484 81.5743 214.03 81.5931L213.639 81.8017L213.622 81.9591C213.979 82.1605 214.066 82.1655 214.475 82.2326C213.841 82.2702 213.066 82.2448 212.422 82.2408C211.3 82.3524 209.902 82.3317 208.754 82.3433Z" fill="white"/>
<path d="M212.309 81.5899C212.862 81.5896 213.485 81.5743 214.031 81.5931L213.639 81.8016L213.622 81.9591C213.98 82.1605 214.066 82.1655 214.476 82.2326C213.841 82.2702 213.066 82.2448 212.422 82.2407C211.673 82.1551 210.808 82.2069 210.048 82.179C209.604 82.163 209.47 82.0431 209.06 82.0331L208.968 82.0319L209.082 81.807C209.505 81.6075 211.601 81.6317 212.309 81.5899Z" fill="white"/>
<path d="M228.336 81.4657L228.352 74.4265C228.354 71.5326 229.042 67.6751 225.062 67.9314C224.528 67.9659 224.173 67.9333 223.84 67.4973C224.11 67.2985 228.612 67.4867 229.478 67.4644C231.374 67.4155 233.362 67.4707 235.265 67.3276L235.45 67.4782L235.412 67.768C234.925 68.0703 231.211 67.6268 231.058 69.7091C230.828 72.8335 230.933 76.8961 230.932 80.0202V89.5892C230.932 91.1424 230.944 92.8752 230.94 94.4126C230.932 97.8517 234.58 96.6834 235.463 97.3348L235.442 97.5782C235.017 97.7488 224.223 97.7297 223.908 97.5932L223.865 97.4007C224.934 96.456 228.257 98.3137 228.324 94.0542C228.344 92.6851 228.347 90.8849 228.343 89.4669L228.325 82.3527C227.171 82.3376 225.643 82.3593 224.528 82.2216C224.998 82.147 225.649 82.1623 226.14 82.1586C226.04 82.0312 224.947 82.1752 224.499 82.0601C224.837 81.7957 225.465 81.8136 225.955 81.7609L225.986 81.7094L224.771 81.6097C225.85 81.4751 227.227 81.4858 228.336 81.4657Z" fill="white"/>
<path d="M94.4072 115.982C96.0496 115.929 97.427 117.207 97.494 118.845C97.5609 120.483 96.2926 121.868 94.6512 121.949C92.989 122.033 91.578 120.747 91.5101 119.088C91.4425 117.43 92.7438 116.034 94.4072 115.982ZM97.0362 118.632C96.8441 117.25 95.5799 116.275 94.1909 116.437C93.266 116.545 92.4715 117.144 92.115 118.003C91.7585 118.861 91.8952 119.845 92.4728 120.574C93.0503 121.303 93.9778 121.663 94.8977 121.516C96.2782 121.295 97.2283 120.013 97.0362 118.632Z" fill="white"/>
<path d="M83.3784 67.8659C87.7079 66.4856 95.2355 66.1333 99.0563 68.9278C99.2993 69.8869 99.9429 74.0542 99.6338 74.8741L99.5222 74.9349C99.2006 74.7057 98.3156 72.5042 97.9254 71.8942C95.3835 67.9226 89.0897 67.3421 84.8312 68.0374C84.4675 68.1002 84.1069 68.1798 83.7507 68.2761L83.3784 67.8659Z" fill="white"/>
<path d="M75.8959 116.117C76.8039 116.091 81.0542 115.845 81.5028 116.429C81.184 116.787 81.0595 116.419 80.6285 116.792C80.5697 117.201 80.5643 120.871 80.6511 121.22C80.9624 121.308 81.2221 121.368 81.539 121.435C81.7301 121.844 81.721 122.827 81.2994 123.089C81.0674 122.864 81.3337 122.353 81.0174 121.806L80.6395 121.76L75.1187 121.755C75.1272 122.226 75.1646 122.489 74.9691 122.917L74.815 122.918C74.5745 122.451 74.6446 121.953 74.6673 121.426C75.4944 121.172 75.9387 121.069 76.4618 120.326C76.8787 119.734 76.8507 117.455 76.692 116.89C76.4521 116.617 76.2836 116.628 75.9141 116.565L75.778 116.543L75.6699 116.386L75.8959 116.117ZM77.2833 116.616C77.2563 118.608 77.5392 119.818 76.2653 121.308L79.3021 121.305C79.7406 121.294 79.7865 121.368 80.0817 121.134C80.1996 119.978 80.1245 117.858 80.0975 116.633L77.2833 116.616Z" fill="white"/>
<path d="M146.72 86.9375L147.641 87.4349C146.835 89.3095 144.768 93.3677 145.294 95.1921C145.952 97.4704 148.865 96.7176 150.012 97.3446L150.035 97.5146C149.474 97.8404 145.554 97.6174 144.56 97.6105C143.387 97.5996 139.586 97.7956 138.77 97.5961L138.746 97.4522C139.373 97.0143 140.916 96.7258 141.304 96.5091C143.833 95.0971 145.574 89.4262 146.72 86.9375Z" fill="white"/>
<path d="M176.231 115.966C179.156 115.928 178.458 119.237 178.405 121.275C178.795 121.286 179.352 121.261 179.59 121.575C179.274 121.806 178.676 121.801 178.27 121.809C177.612 121.821 178.137 121.564 177.765 121.14C176.358 121.263 176.057 122.769 173.845 121.567C172.042 119.375 174.059 118.521 176.1 118.41C176.667 118.379 177.198 118.447 177.77 118.367L177.921 118.147C178.049 115.622 175.106 116.97 173.883 116.606C174.444 116.197 175.329 116.074 176.006 115.972C176.08 115.968 176.156 115.966 176.231 115.966ZM177.903 119.428C177.265 118.625 176.284 118.819 175.365 118.863C172.571 119.748 173.575 121.861 176.134 121.44C176.975 121.055 178.189 120.556 177.903 119.428Z" fill="white"/>
<path d="M107.507 116.116C108.3 116.058 108.579 115.882 108.959 116.654C109.616 117.988 110.228 119.341 110.849 120.693C111.296 119.845 112.699 116.635 113.082 116.185C113.591 115.874 114.132 115.994 114.487 116.453C114.372 116.564 114.356 116.579 114.218 116.65L114.111 116.704C113.702 117.494 113.812 119.688 113.92 120.625C113.982 121.173 114.158 121.255 114.522 121.519L114.508 121.692C114.04 121.849 112.585 121.789 112.096 121.668L112.025 121.503C112.327 121.26 112.823 121.284 113.242 121.25C113.519 120.865 113.346 117.686 113.327 117.008L113.284 116.871L113.134 116.818C112.776 117.707 111.621 120.491 110.9 121.123C110.834 121.18 110.728 121.116 110.592 121.079C110.222 120.653 108.665 117.101 108.325 116.362C108.272 117.965 108.3 119.711 108.3 121.326C108.662 121.314 109.389 121.22 109.559 121.59C109.047 121.817 107.52 121.892 107.06 121.566L107.112 121.401C107.46 121.353 107.54 121.355 107.854 121.212C107.982 120.678 108.021 117.432 107.723 116.737C107.634 116.53 107.402 116.528 107.183 116.475L107.193 116.32L107.507 116.116Z" fill="white"/>
<path d="M214.031 81.5931L224.771 81.6098L225.986 81.7095L225.955 81.7609C225.466 81.8136 224.837 81.7957 224.499 82.0601C224.947 82.1752 226.041 82.0313 226.14 82.1586C225.649 82.1624 224.999 82.147 224.528 82.2217C221.202 82.2643 217.808 82.233 214.476 82.2326C214.066 82.1655 213.98 82.1605 213.622 81.9592L213.639 81.8017L214.031 81.5931Z" fill="white"/>
<path d="M143.723 115.978C144.599 116.036 144.765 116.087 145.532 116.554C145.999 116.838 145.815 116.284 146.269 116.148C146.461 116.457 146.431 117.595 146.247 117.909C145.852 117.72 145.723 117.156 144.876 116.569C143.822 116.437 143.1 116.307 142.171 116.973C141.052 117.776 140.764 119.426 141.616 120.522C142.222 121.299 142.873 121.443 143.802 121.564C145.249 121.449 145.908 120.591 146.67 120.597C145.992 121.916 143.182 122.4 141.873 121.369C141.251 120.868 140.854 120.143 140.77 119.35C140.54 117.389 141.858 116.171 143.723 115.978Z" fill="white"/>
<path d="M158.161 116.623C158.147 117.297 157.982 120.903 158.263 121.267L158.926 121.35L159.028 121.507L158.915 121.674C158.42 121.833 157.166 121.822 156.679 121.678C156.702 121.365 157.252 121.434 157.625 120.956C157.635 120.079 157.698 117.833 157.562 116.852C157.551 116.771 157.018 116.697 156.841 116.307C157.345 115.932 158.879 116.078 159.551 116.099C159.095 116.148 158.694 116.097 158.445 116.371L158.578 116.509C158.894 116.513 160.102 116.496 160.332 116.613L158.161 116.623Z" fill="white"/>
<path d="M159.551 116.099C160.435 116.079 162.045 115.993 162.853 116.14L162.989 116.275C162.826 116.806 162.538 116.462 162.4 117C162.101 118.164 162.171 119.956 162.29 121.153C162.3 121.256 162.437 121.265 162.575 121.311C162.204 121.428 162.139 121.462 161.775 121.342C161.881 120.799 161.819 117.321 161.694 116.75C161.371 116.596 160.72 116.623 160.332 116.613C160.102 116.496 158.894 116.513 158.578 116.509L158.445 116.371C158.694 116.097 159.095 116.148 159.551 116.099Z" fill="white"/>
<path d="M132.308 12.8973C130.086 12.6832 124.28 12.9576 122.546 12.4327C123.253 12.0522 131.405 12.3142 132.667 12.3691C132.292 12.4505 131.915 12.5283 131.538 12.6026L132.688 12.7158L132.744 12.7926L132.308 12.8973Z" fill="white"/>
<path d="M162.575 121.311L163.045 121.354L163.173 121.558C162.685 122.015 161.59 121.777 160.998 121.601L160.946 121.473C161.319 121.311 161.369 121.31 161.775 121.342C162.139 121.462 162.204 121.428 162.575 121.311Z" fill="white"/>
<path d="M81.9132 68.4398C82.4058 68.2701 82.8953 68.0631 83.3786 67.8658L83.7511 68.2761C82.9862 68.5003 82.6048 68.6245 81.8625 68.9504L81.9132 68.4398Z" fill="white"/>
</svg>
