<svg width="19" height="14" viewBox="0 0 19 14" fill="none" xmlns="http://www.w3.org/2000/svg">
<path d="M3.66324 4.14735C3.34048 3.40638 2.0234 1.26095 1.32127 0.798375C1.04499 0.616374 0.187121 0.31629 0 0.112882L0.0187745 0.023733C0.228875 -0.016722 0.413636 0.00664937 0.62203 0.00732164C2.90675 0.00477755 3.84655 1.9199 4.84769 3.60358C6.17329 5.82435 7.38281 8.41934 10.1372 9.05417C10.6156 9.16437 12.0247 9.28578 12.3218 9.45437L12.2945 9.51106C11.9344 9.59344 10.9725 9.5738 10.5572 9.55271C8.21364 9.43368 6.42436 8.45638 5.02772 6.56525C4.76378 6.20802 4.21003 5.12962 3.84997 5.03278C3.5683 5.10465 3.45196 5.22142 3.21875 5.38766C1.3088 6.74935 1.05444 9.21433 2.51872 11.0297C3.81675 12.6391 5.55494 12.7319 7.49562 12.9493C8.13393 13.0269 10.936 13.0601 11.2396 13.2724C10.904 13.3839 8.41165 13.2739 7.87038 13.2641C7.14159 13.3045 5.52618 13.1665 4.7966 13.065C3.32366 12.8603 1.62539 12.0251 0.73404 10.7934C0.0883733 9.90111 -0.0408413 8.93264 0.111088 7.86817C0.274442 6.72314 1.1331 5.61966 2.1144 5.04333C2.63572 4.73713 3.1632 4.51256 3.66324 4.14735Z" fill="white"/>
<path d="M7.49516 12.9493C8.13348 13.0269 10.9356 13.0601 11.2392 13.2724C10.9035 13.3839 8.4112 13.2739 7.86993 13.2641C7.66928 13.2018 6.76165 13.1201 6.49902 13.0984L6.56337 13.0787C6.96164 12.9601 7.11685 13.0607 7.44894 12.9632L7.49516 12.9493Z" fill="white"/>
<path d="M11.7085 0.123176C14.7259 -0.163726 19.1601 1.50758 18.6401 5.31581C18.5421 6.03596 18.3024 6.59802 17.8337 7.16477C17.5748 7.47552 17.2767 7.7511 16.9471 7.98458C16.6023 8.23084 15.1073 8.93238 15.1815 9.23226C15.3805 10.041 16.4124 11.6698 17.0319 12.25C17.3477 12.5458 18.6461 12.9704 18.8133 13.2958C18.5253 13.4565 17.5585 13.2733 17.2345 13.1811C13.6601 12.1642 13.3335 6.14774 9.36336 4.46701C8.65506 4.16692 7.86836 4.01723 7.10517 3.94878C6.75286 3.91723 6.38006 3.91764 6.03418 3.84986C7.53732 3.3093 9.74023 3.81627 11.1483 4.46813C12.2478 4.97724 13.1211 5.82725 13.7412 6.86131C14.0526 7.38 14.3395 7.92107 14.7112 8.39733C15.711 7.76088 16.781 6.80087 17.0521 5.56993C17.6128 3.0217 15.5059 1.10382 13.2294 0.551862C12.6992 0.423313 12.0848 0.448398 11.5587 0.345184L11.7405 0.301157L11.7177 0.268888L11.2372 0.221341C11.3946 0.190101 11.5521 0.15737 11.7085 0.123176Z" fill="white"/>
</svg>
